<svg xmlns="http://www.w3.org/2000/svg" width="16.633" height="14.97" viewBox="0 0 16.633 14.97"><defs><style>.a{fill:#6b7b9c;}</style></defs><g transform="translate(-25 -28)"><g transform="translate(25 -2.599)"><g transform="translate(0 30.599)"><path class="a" d="M15.8,43.905H.832a.832.832,0,0,0,0,1.663H15.8a.832.832,0,0,0,0-1.663ZM.832,32.262H15.8a.832.832,0,1,0,0-1.663H.832a.832.832,0,1,0,0,1.663Zm8.97,4.99H.832a.832.832,0,0,0,0,1.663H9.8a.832.832,0,0,0,0-1.663Z" transform="translate(0 -30.599)"/></g></g></g></svg>